# xmcd
#
# Track frame offsets:
#	150
#	18360
#	39535
#	57802
#	70557
#	88830
#	107860
#	126310
#	145532
#	162160
#	179672
#	197010
#	212580
#	228117
#	240422
#	251770
#	263482
#
# Disc length: 3702 seconds
#
# Revision: 16
# Processed by: cddbd v1.5.2PL0 Copyright (c) Steve Scherf et al.
# Submitted via: EasyCDDAExtractor 15.3.0.1
#
DISCID=e20e7411
DTITLE=Cher - If I Could Turn Back Time - Cher's Greatest Hits
DYEAR=1999
DGENRE=Pop/Rock
TTITLE0=Don't Come Cryin' To Me
TTITLE1=Love And Understanding
TTITLE2=Save Up All Your Tears
TTITLE3=The Shoop Shoop Song (It's In His Kiss)
TTITLE4=After All (Love Theme From Chances Are)
TTITLE5=If I Could Turn Back Time
TTITLE6=Just Like Jesse James
TTITLE7=Heart Of Stone (Remix)
TTITLE8=I Found Someone
TTITLE9=We All Sleep Alone
TTITLE10=Bang Bang (New Version)
TTITLE11=Take Me Home
TTITLE12=Dark Lady
TTITLE13=Half Breed
TTITLE14=The Way Of Love
TTITLE15=Gypsys, Tramps and Thieves
TTITLE16=I Got You Babe (Sonny and Cher)
EXTD=YEAR: 1999
EXTT0=
EXTT1=
EXTT2=
EXTT3=
EXTT4=
EXTT5=
EXTT6=
EXTT7=
EXTT8=
EXTT9=
EXTT10=
EXTT11=
EXTT12=
EXTT13=
EXTT14=
EXTT15=
EXTT16=
PLAYORDER=
